<?xml version="1.0" standalone="no"?>
<!DOCTYPE svg PUBLIC "-//W3C//DTD SVG 20010904//EN"
 "http://www.w3.org/TR/2001/REC-SVG-20010904/DTD/svg10.dtd">
<svg version="1.0" xmlns="http://www.w3.org/2000/svg"
 width="220.000000pt" height="220.000000pt" viewBox="0 0 220.000000 220.000000"
 preserveAspectRatio="xMidYMid meet">
<metadata>
Created by potrace 1.11, written by Peter Selinger 2001-2013
</metadata>
<g transform="translate(0.000000,220.000000) scale(0.100000,-0.100000)"
fill="#000000" stroke="none">
<path d="M612 1758 c-17 -40 -86 -212 -155 -383 -69 -170 -187 -462 -262 -649
-75 -186 -134 -341 -131 -344 3 -3 21 -6 40 -6 19 -1 32 -4 29 -9 -2 -4 -9 -4
-15 -1 -6 4 -8 3 -5 -3 7 -11 43 -10 54 2 5 4 2 5 -4 1 -7 -4 -13 -3 -13 2 0
17 13 22 27 11 11 -10 12 -8 5 11 -9 25 11 80 30 80 6 0 5 -7 -3 -17 -11 -16
-11 -16 1 -5 8 7 16 22 16 33 3 37 4 40 16 33 7 -4 5 1 -4 12 -13 15 -14 22
-5 35 7 9 17 14 22 12 6 -2 11 7 12 19 2 19 0 20 -8 8 -9 -12 -9 -11 -3 5 4
11 7 27 8 36 0 10 6 15 13 12 11 -4 11 -8 1 -22 -11 -14 -11 -14 4 -3 12 10
14 20 8 42 -8 27 -7 29 10 20 24 -13 41 -13 19 0 -9 5 -15 19 -13 32 1 13 3
27 3 32 1 5 7 4 14 -2 10 -8 13 -6 13 8 0 10 -3 17 -7 14 -4 -2 -6 2 -5 8 3
25 17 37 34 31 15 -6 16 -5 2 13 -9 12 -4 10 14 -6 24 -21 27 -22 18 -5 -9 18
-7 20 29 20 21 -1 41 -4 45 -8 4 -3 -3 -5 -15 -2 -11 2 -21 0 -21 -4 0 -9 71
-8 86 1 21 13 62 12 79 -2 17 -13 18 -13 12 2 -7 19 16 18 55 -3 20 -10 21
-10 11 2 -9 12 -1 14 52 14 35 0 61 -3 59 -7 -3 -5 -1 -8 5 -8 5 0 12 4 15 9
7 10 31 9 42 -2 4 -3 -3 -5 -15 -2 -11 2 -21 0 -21 -4 0 -4 18 -7 40 -7 22 0
40 4 40 9 0 4 -4 6 -9 2 -5 -3 -12 -2 -14 3 -3 4 12 7 33 7 21 0 38 -4 37 -10
-1 -5 3 -9 10 -8 7 2 10 -6 8 -17 -2 -12 0 -18 6 -15 9 6 11 1 13 -27 1 -7 4
-15 7 -18 5 -5 53 -119 54 -130 0 -3 6 -15 13 -28 7 -12 10 -26 7 -31 -3 -5
-1 -11 3 -13 13 -5 63 -138 57 -149 -6 -8 29 -14 65 -10 13 2 13 0 1 -8 -8 -5
-21 -7 -30 -4 -11 3 -12 2 -4 -4 17 -12 53 -9 81 6 20 11 21 15 10 29 -11 14
-10 15 7 9 19 -7 19 -6 2 7 -12 10 -14 15 -6 18 8 3 10 11 4 24 -12 29 -15 74
-4 74 5 0 9 -5 9 -12 0 -6 2 -9 5 -6 10 10 -7 38 -19 31 -6 -4 -5 1 3 10 11
14 11 17 0 17 -8 0 -5 6 7 15 11 9 13 13 4 10 -11 -4 -16 3 -16 25 -1 16 2 30
7 30 5 0 9 5 9 11 0 5 -6 7 -13 3 -8 -5 -8 -2 2 9 11 14 11 17 0 18 -8 0 -5 4
6 9 19 8 19 9 1 9 -16 1 -17 3 -5 18 8 9 9 14 4 11 -6 -4 -12 2 -12 13 -1 10
2 19 8 19 5 0 9 -5 9 -12 0 -6 2 -9 5 -6 10 10 -7 38 -19 31 -6 -4 -5 1 3 10
11 14 11 17 0 17 -8 0 -5 6 7 15 11 9 13 13 4 10 -11 -4 -16 3 -16 25 -1 16 2
30 7 30 5 0 9 5 9 11 0 5 -4 8 -8 5 -4 -2 -8 6 -8 20 0 15 6 24 16 24 13 0 13
1 0 10 -21 13 -22 70 -1 70 14 0 14 2 1 10 -21 13 -22 70 -1 70 14 0 14 2 1
10 -21 13 -22 70 -1 70 14 0 14 2 1 10 -21 13 -22 70 -1 70 14 0 14 2 1 10
-21 13 -22 70 -1 70 14 0 14 2 1 10 -21 13 -22 70 -1 70 14 0 14 2 1 10 -21
13 -22 70 -1 70 14 0 14 2 1 10 -21 13 -22 70 -1 70 13 0 14 2 2 9 -8 5 -16
17 -17 25 -1 9 2 14 6 11 5 -3 11 -1 15 5 3 5 0 10 -8 10 -7 0 -14 7 -14 15 0
9 6 14 12 11 6 -2 12 2 12 9 0 7 -6 11 -13 8 -13 -5 -14 14 -1 34 4 6 3 14 -3
18 -6 4 -8 11 -4 16 3 5 10 7 15 3 5 -3 7 -10 4 -15 -4 -5 -1 -9 4 -9 6 0 11
8 12 18 0 11 2 12 6 4 4 -10 9 -9 19 5 13 17 14 17 8 1 -6 -19 10 -25 21 -8 8
13 25 13 25 -1 0 -5 -5 -7 -12 -3 -7 5 -8 3 -4 -5 6 -9 13 -8 29 6 19 17 20
17 14 1 -4 -10 -2 -18 3 -18 6 0 10 8 10 18 0 14 2 15 10 2 6 -10 10 -11 10
-2 0 6 5 12 11 12 5 0 7 -4 4 -10 -9 -14 8 -12 24 3 11 10 13 9 8 -5 -4 -12
-2 -15 8 -11 8 3 13 9 10 13 -3 4 11 7 30 7 24 -1 34 -5 31 -14 -3 -7 1 -10 9
-6 8 3 13 9 10 13 -3 4 11 7 29 7 19 -1 32 -5 29 -10 -2 -4 15 -8 39 -7 60 1
78 -2 78 -13 0 -5 6 -7 14 -4 8 3 22 -1 33 -9 10 -9 13 -13 7 -10 -6 3 -11 -1
-11 -9 0 -13 3 -13 17 0 16 15 22 12 75 -39 31 -31 54 -60 50 -66 -3 -5 -2
-10 3 -10 30 0 49 -202 27 -285 -21 -80 -109 -188 -163 -202 -18 -4 -20 -8
-10 -14 7 -5 13 -14 13 -21 0 -7 9 -14 20 -15 l20 -3 -20 10 -20 10 20 -3 c12
-2 19 -10 19 -20 -1 -9 2 -15 6 -12 5 3 10 2 13 -2 2 -5 2 -2 1 4 -2 7 18 -3
44 -21 26 -19 46 -39 44 -46 -1 -6 2 -9 7 -6 11 7 56 -52 47 -61 -3 -3 1 -11
9 -17 19 -14 26 -44 30 -128 8 -151 -64 -265 -210 -334 -55 -26 -62 -32 -35
-27 19 3 61 16 92 28 51 20 58 21 61 6 3 -10 5 -7 6 8 1 21 3 22 18 10 15 -12
16 -12 11 3 -6 15 15 34 35 30 4 -1 7 4 7 12 0 8 5 18 12 22 7 5 8 3 3 -6 -5
-8 -3 -11 6 -8 8 3 14 13 14 24 1 10 6 18 13 16 7 -1 12 3 12 9 0 5 5 7 10 4
6 -3 10 -2 10 4 0 5 -6 12 -12 14 -10 4 -10 6 0 6 7 1 10 6 7 11 -8 13 17 8
28 -5 8 -11 2 39 -8 54 -3 5 3 14 12 20 10 6 13 11 7 11 -6 0 -11 7 -11 15 0
12 3 12 16 2 12 -9 13 -9 7 0 -4 7 -2 22 4 33 8 15 8 25 0 38 -10 15 -10 15
-6 -3 3 -11 1 -27 -4 -35 -8 -11 -9 -3 -6 28 3 23 8 47 11 52 3 6 1 10 -4 10
-6 0 -11 5 -11 11 0 5 6 7 13 3 9 -6 9 -4 1 7 -6 8 -10 22 -9 31 2 10 -1 20
-6 24 -5 3 -9 15 -9 27 0 12 -7 31 -15 41 -8 10 -12 24 -8 30 3 6 3 8 -2 4 -4
-4 -21 11 -36 32 -16 22 -34 40 -40 40 -5 0 -7 5 -4 10 4 6 3 10 -2 8 -4 -1
-32 13 -60 32 -48 30 -51 34 -35 46 20 16 46 18 37 4 -4 -6 -10 -8 -15 -5 -5
3 -12 0 -16 -6 -4 -8 -3 -9 4 -5 7 4 12 1 12 -6 0 -8 5 -6 11 5 6 10 16 14 22
10 7 -3 3 4 -8 17 l-20 23 22 -12 c29 -15 41 -14 21 2 -15 11 -14 15 14 47 17
19 28 30 24 23 -3 -6 -1 -15 5 -19 7 -4 9 -3 5 4 -3 6 1 17 9 26 9 9 11 17 5
21 -5 3 -10 1 -10 -4 0 -6 -5 -11 -12 -11 -6 0 -4 7 5 18 10 10 14 22 10 27
-5 4 -3 5 4 1 9 -5 11 2 8 23 -2 17 0 30 3 30 19 -3 23 2 12 16 -10 12 -9 18
5 32 14 14 15 18 4 27 -15 12 -21 59 -7 50 4 -3 8 0 8 5 0 6 -6 11 -12 11 -10
0 -9 3 1 9 9 6 9 10 2 12 -6 2 -12 16 -13 32 -1 15 -6 27 -11 27 -5 0 -7 9 -4
20 3 11 2 18 -3 15 -9 -6 -43 43 -43 62 0 7 -3 10 -7 8 -4 -2 -16 4 -26 14
-53 49 -177 99 -269 108 -81 8 -537 8 -542 0 -3 -5 -5 -267 -6 -583 0 -316 -4
-569 -8 -562 -4 6 -6 15 -3 19 2 4 -1 9 -6 11 -6 2 -12 13 -13 26 0 12 -6 22
-11 22 -5 0 -6 3 -3 7 4 3 0 14 -8 23 -8 9 -16 31 -18 49 -2 18 -9 36 -14 39
-16 10 -64 134 -50 126 7 -3 5 0 -4 8 -9 7 -15 24 -14 36 1 13 -4 26 -11 29
-7 2 -15 11 -18 20 -5 11 -2 14 11 9 15 -5 14 -3 -3 11 -23 20 -49 71 -45 91
1 6 -4 12 -10 12 -7 0 -4 7 7 16 10 8 13 12 6 9 -15 -8 -44 24 -37 42 2 6 -1
13 -6 15 -5 2 -11 13 -12 26 0 12 -5 22 -10 22 -4 0 -5 5 -1 11 3 6 2 14 -4
18 -15 9 -52 112 -45 124 4 6 1 7 -7 2 -10 -6 -12 -3 -8 13 4 12 3 20 -2 17
-10 -6 -22 24 -14 36 3 5 0 9 -6 9 -6 0 -9 4 -6 9 4 5 2 11 -4 13 -6 2 -12 14
-15 27 -2 12 -9 29 -15 35 -5 7 -7 16 -3 20 4 3 -2 13 -13 21 -10 8 -14 15 -7
15 7 0 10 7 7 15 -4 8 -11 12 -17 8 -6 -4 -8 2 -5 15 4 12 2 22 -3 22 -6 0
-15 14 -20 30 -6 17 -15 30 -19 30 -4 0 -22 -33 -38 -72z m89 -293 c22 -53 36
-101 33 -107 -4 -7 -2 -8 4 -4 7 4 12 2 12 -4 0 -6 19 -59 42 -118 23 -59 41
-112 41 -119 0 -7 3 -13 7 -13 4 0 13 -19 21 -42 7 -24 21 -59 30 -78 10 -19
15 -38 13 -42 -3 -4 -119 -7 -259 -7 -211 1 -253 3 -248 15 3 7 9 12 13 11 9
-2 10 2 10 36 0 18 -2 19 -11 7 -9 -13 -10 -13 -6 0 2 8 11 14 20 12 20 -3 31
14 16 24 -8 5 -9 3 -4 -7 5 -8 4 -10 0 -6 -19 17 -13 34 11 31 13 -1 22 2 18
7 -3 5 -9 7 -14 4 -4 -3 -6 4 -3 15 4 16 8 18 19 9 19 -15 18 -4 -1 14 -13 13
-12 17 2 29 14 11 16 11 8 -1 -5 -9 -4 -12 3 -7 6 4 8 14 5 23 -4 9 -2 14 3
10 5 -3 11 6 12 19 1 18 -2 23 -11 18 -8 -5 -8 -2 2 9 7 9 17 15 21 12 4 -2 6
7 5 20 -2 17 3 26 16 30 10 4 19 11 19 16 0 13 -18 11 -23 -3 -2 -7 -7 -11
-10 -8 -3 3 3 16 15 30 11 14 16 18 12 10 -7 -13 -5 -13 9 -1 20 16 20 18 5
27 -7 5 -8 2 -3 -7 6 -11 5 -11 -4 -3 -10 9 -7 18 14 40 63 69 62 68 38 55
-12 -6 -25 -20 -28 -31 -4 -11 -11 -18 -16 -15 -5 4 -2 13 6 21 8 9 13 19 10
24 -3 4 3 10 13 12 10 3 19 11 19 19 0 8 4 23 9 33 6 15 4 17 -7 11 -11 -7
-12 -6 -2 7 7 8 9 19 5 23 -4 5 -2 6 3 3 6 -3 19 3 30 14 13 13 15 18 5 15 -8
-2 -12 -2 -7 0 4 3 4 10 1 16 -5 9 -4 9 6 0 7 -6 30 -55 51 -108z m-286 -495
c3 -6 -1 -7 -9 -4 -18 7 -21 14 -7 14 6 0 13 -4 16 -10z m1690 -350 c3 -5 1
-10 -4 -10 -6 0 -11 5 -11 10 0 6 2 10 4 10 3 0 8 -4 11 -10z"/>
<path d="M1500 1750 c-9 -6 -10 -10 -3 -10 6 0 15 5 18 10 8 12 4 12 -15 0z"/>
<path d="M1580 1750 c-9 -6 -10 -10 -3 -10 6 0 15 5 18 10 8 12 4 12 -15 0z"/>
<path d="M1671 1746 c2 -2 15 -9 29 -15 24 -11 24 -11 6 3 -16 13 -49 24 -35
12z"/>
<path d="M1240 1559 c0 -5 5 -7 10 -4 6 3 10 8 10 11 0 2 -4 4 -10 4 -5 0 -10
-5 -10 -11z"/>
<path d="M1423 1393 c0 -105 3 -160 10 -165 7 -4 15 -2 19 5 5 8 8 6 8 -5 0
-19 8 -22 34 -12 9 3 13 10 10 15 -3 5 2 6 10 3 9 -3 14 -9 11 -13 -6 -11 56
-6 63 5 10 13 53 14 46 0 -3 -6 2 -2 10 8 9 11 16 16 16 12 0 -5 6 -4 13 2 7
6 24 9 38 6 16 -4 20 -3 11 4 -10 7 -8 16 10 45 13 20 31 39 41 42 19 7 24 27
5 22 -6 -1 -13 14 -15 37 -4 30 -2 36 9 31 7 -5 4 2 -7 14 -83 93 -93 97 -241
100 l-101 2 0 -158z m181 105 c-3 -5 -10 -5 -16 -2 -7 4 -8 2 -4 -4 5 -9 13
-9 27 -1 21 11 59 4 59 -12 0 -5 6 -9 14 -9 7 0 17 -10 21 -22 23 -73 4 -137
-50 -162 -40 -19 -180 -22 -191 -4 -5 8 -2 9 11 4 15 -6 16 -4 4 10 -7 9 -14
38 -14 65 -1 38 2 49 14 49 14 0 14 2 2 9 -19 12 -22 70 -4 79 18 10 133 10
127 0z m-119 -268 c3 -5 1 -10 -4 -10 -6 0 -11 5 -11 10 0 6 2 10 4 10 3 0 8
-4 11 -10z"/>
<path d="M1480 1489 c-13 -9 -13 -10 2 -6 9 3 19 1 22 -6 2 -7 5 -4 5 6 1 20
-7 21 -29 6z"/>
<path d="M1550 1496 c0 -2 7 -9 15 -16 13 -11 14 -10 9 4 -5 14 -24 23 -24 12z"/>
<path d="M1630 1486 c0 -2 7 -7 16 -10 8 -3 12 -2 9 4 -6 10 -25 14 -25 6z"/>
<path d="M1475 1460 c3 -5 8 -10 11 -10 2 0 4 5 4 10 0 6 -5 10 -11 10 -5 0
-7 -4 -4 -10z"/>
<path d="M1240 1479 c0 -5 5 -7 10 -4 6 3 10 8 10 11 0 2 -4 4 -10 4 -5 0 -10
-5 -10 -11z"/>
<path d="M2070 1470 c0 -5 5 -10 11 -10 5 0 7 5 4 10 -3 6 -8 10 -11 10 -2 0
-4 -4 -4 -10z"/>
<path d="M1240 1399 c0 -5 5 -7 10 -4 6 3 10 8 10 11 0 2 -4 4 -10 4 -5 0 -10
-5 -10 -11z"/>
<path d="M2050 1345 c0 -5 5 -17 10 -25 5 -8 10 -10 10 -5 0 6 -5 17 -10 25
-5 8 -10 11 -10 5z"/>
<path d="M1240 1319 c0 -5 5 -7 10 -4 6 3 10 8 10 11 0 2 -4 4 -10 4 -5 0 -10
-5 -10 -11z"/>
<path d="M1740 1295 c-7 -9 -11 -17 -9 -20 3 -2 10 5 17 15 14 24 10 26 -8 5z"/>
<path d="M1753 1265 c0 -8 4 -12 9 -9 5 3 6 10 3 15 -9 13 -12 11 -12 -6z"/>
<path d="M1240 1239 c0 -5 5 -7 10 -4 6 3 10 8 10 11 0 2 -4 4 -10 4 -5 0 -10
-5 -10 -11z"/>
<path d="M1665 1230 c-10 -11 -13 -20 -7 -20 7 0 12 4 12 10 0 5 6 8 13 6 6
-1 9 -1 4 1 -4 3 -5 9 -1 14 9 16 -2 10 -21 -11z"/>
<path d="M1599 1213 c-13 -16 -12 -17 4 -4 16 13 21 21 13 21 -2 0 -10 -8 -17
-17z"/>
<path d="M1992 1218 c-7 -7 -12 -17 -12 -22 0 -6 5 -3 11 8 9 15 13 16 20 5 6
-9 9 -10 9 -2 0 18 -15 24 -28 11z"/>
<path d="M1240 1159 c0 -5 5 -7 10 -4 6 3 10 8 10 11 0 2 -4 4 -10 4 -5 0 -10
-5 -10 -11z"/>
<path d="M1240 1079 c0 -5 5 -7 10 -4 6 3 10 8 10 11 0 2 -4 4 -10 4 -5 0 -10
-5 -10 -11z"/>
<path d="M1240 999 c0 -5 5 -7 10 -4 6 3 10 8 10 11 0 2 -4 4 -10 4 -5 0 -10
-5 -10 -11z"/>
<path d="M1425 809 c0 -85 4 -155 8 -156 4 -1 15 -9 23 -18 19 -18 34 -19 34
-2 0 7 9 13 20 13 11 0 20 -4 20 -8 0 -4 5 -8 11 -8 5 0 8 4 5 8 -3 5 1 9 9 9
8 0 15 -4 15 -9 0 -4 5 -8 11 -8 5 0 8 4 5 8 -2 4 6 8 20 8 13 0 24 -4 24 -9
0 -5 8 -3 17 4 14 12 16 12 9 -1 -4 -8 -1 -6 8 4 15 19 16 18 26 -5 l11 -24
-5 23 c-3 17 -1 22 9 18 7 -2 19 2 26 10 6 8 14 12 17 9 3 -3 16 5 29 17 13
12 23 17 24 12 1 -5 4 2 8 15 4 14 13 27 21 29 12 4 13 2 3 -9 -7 -7 -13 -17
-13 -23 0 -5 6 -1 14 9 10 13 11 25 5 37 -12 22 -11 41 1 33 6 -3 10 -2 10 4
0 5 -5 11 -10 13 -6 2 -11 17 -13 35 -1 17 -4 30 -7 28 -3 -2 -11 3 -18 11 -7
8 -9 14 -5 14 4 1 -16 12 -46 27 -48 23 -69 26 -190 31 l-137 5 1 -154z m89
80 c-3 -6 3 -5 14 2 12 7 18 18 16 24 -3 5 2 1 10 -9 13 -17 16 -17 16 -4 0
13 6 15 28 11 15 -3 36 -5 46 -5 10 1 33 -6 50 -16 17 -9 35 -15 40 -14 5 2 6
-7 3 -18 -5 -18 -3 -19 11 -8 13 11 15 11 9 -4 -4 -11 -2 -18 5 -18 15 0 4
-85 -14 -103 -30 -31 -78 -46 -151 -50 -45 -2 -81 1 -87 7 -7 7 -10 6 -10 -4
0 -9 -5 -8 -16 6 -8 10 -12 12 -8 4 4 -8 3 -12 -1 -7 -12 10 -14 47 -3 47 5 0
6 6 1 13 -15 24 -13 47 5 47 16 1 16 1 0 11 -20 11 -24 29 -7 29 5 0 7 -5 3
-12 -4 -6 -3 -8 4 -4 6 3 9 18 6 32 -3 14 -1 23 4 20 11 -7 9 31 -3 41 -4 5
-5 2 -1 -4 4 -7 3 -13 -3 -13 -5 0 -8 -11 -7 -25 2 -13 -1 -22 -5 -19 -9 5 -5
46 6 64 4 7 13 7 26 0 11 -6 17 -16 13 -21z"/>
<path d="M1595 900 c3 -6 1 -10 -6 -10 -7 0 -10 -3 -6 -6 3 -3 13 -2 22 4 16
8 16 9 1 15 -10 4 -15 3 -11 -3z"/>
<path d="M1653 885 c0 -8 4 -12 9 -9 4 3 8 9 8 15 0 5 -4 9 -8 9 -5 0 -9 -7
-9 -15z"/>
<path d="M1473 765 c0 -8 4 -12 9 -9 5 3 6 10 3 15 -9 13 -12 11 -12 -6z"/>
<path d="M755 821 c-3 -5 -2 -12 3 -15 5 -3 9 1 9 9 0 17 -3 19 -12 6z"/>
<path d="M910 820 c0 -5 5 -10 11 -10 5 0 7 5 4 10 -3 6 -8 10 -11 10 -2 0 -4
-4 -4 -10z"/>
<path d="M334 799 c-4 -7 -3 -9 4 -5 5 3 13 0 15 -6 4 -9 6 -10 6 -1 1 17 -16
25 -25 12z"/>
<path d="M1775 680 c-10 -11 -21 -17 -25 -15 -4 3 -11 -2 -14 -11 -10 -25 -7
-26 16 -4 13 12 30 18 42 15 12 -3 15 -2 9 1 -7 3 -13 10 -13 15 0 6 5 7 12 3
7 -4 8 -3 4 4 -9 16 -10 15 -31 -8z"/>
<path d="M2118 643 c7 -3 16 -2 19 1 4 3 -2 6 -13 5 -11 0 -14 -3 -6 -6z"/>
<path d="M1596 622 c-2 -4 4 -8 14 -8 10 0 16 4 14 8 -3 4 -9 8 -14 8 -5 0
-11 -4 -14 -8z"/>
<path d="M235 550 c-3 -6 1 -7 9 -4 18 7 21 14 7 14 -6 0 -13 -4 -16 -10z"/>
<path d="M1984 469 c-3 -6 -1 -16 5 -22 9 -9 10 -7 5 7 -6 15 -4 17 6 11 9 -5
11 -4 6 3 -9 15 -13 15 -22 1z"/>
<path d="M185 420 c-3 -6 1 -7 9 -4 18 7 21 14 7 14 -6 0 -13 -4 -16 -10z"/>
<path d="M1875 409 c-4 -6 -5 -12 -2 -15 2 -3 7 2 10 11 7 17 1 20 -8 4z"/>
<path d="M1715 390 c-3 -6 1 -7 9 -4 18 7 21 14 7 14 -6 0 -13 -4 -16 -10z"/>
</g>
</svg>
